<?xml version="1.0" encoding="UTF-8" standalone="no"?><svg xmlns="http://www.w3.org/2000/svg" xmlns:xlink="http://www.w3.org/1999/xlink" style="isolation:isolate" viewBox="495.27 388.42 300.060537 30.951015"><path d=" M 645.196 389.683 L 645.196 389.683 C 645.836 390.345 646.349 391.105 646.73 391.94 C 647.08 392.73 647.26 393.58 647.27 394.44 C 647.25 395.61 646.94 396.76 646.35 397.78 C 646.021 398.343 645.638 398.874 645.2 399.357 C 644.762 398.874 644.379 398.343 644.05 397.78 C 643.46 396.76 643.15 395.61 643.13 394.44 C 643.14 393.58 643.32 392.73 643.67 391.94 C 644.051 391.105 644.564 390.345 645.196 389.683 L 645.196 389.683 L 645.196 389.683 L 645.196 389.683 Z  M 668.805 392.87 L 668.94 392.87 L 774.81 392.87 L 775.31 392.87 L 775.31 391.87 L 774.81 391.87 L 774.81 391.87 L 774.81 391.87 L 668.94 391.87 L 668.643 391.87 C 668.56 391.333 668.483 390.797 668.41 390.26 C 668.41 390.26 668.41 390.25 668.41 390.25 L 668.35 389.87 L 783.04 389.87 C 782.48 391.1 782.18 392.42 782.16 393.77 C 782.15 395.83 782.92 397.82 784.31 399.34 C 784.94 400.04 785.71 400.6 786.55 401.01 C 787.38 401.41 788.29 401.62 789.2 401.63 C 790.19 401.62 791.17 401.36 792.03 400.88 C 793.04 400.29 793.9 399.47 794.54 398.49 C 795.03 397.49 795.3 396.38 795.33 395.26 C 795.34 394.63 795.21 394 794.97 393.42 C 794.74 392.91 794.42 392.45 794 392.08 C 793.24 391.41 792.26 391.04 791.24 391.04 C 790.46 391.02 789.7 391.27 789.08 391.75 C 788.43 392.28 788.07 393.08 788.08 393.91 C 788.08 393.92 788.08 393.93 788.08 393.93 L 788.1 394.28 L 788.13 394.77 L 789.13 394.72 L 789.1 394.22 L 789.08 393.89 C 789.08 393.37 789.3 392.87 789.7 392.53 C 790.14 392.2 790.68 392.02 791.23 392.04 C 792.01 392.03 792.76 392.32 793.34 392.83 C 793.64 393.1 793.88 393.44 794.05 393.81 C 794.24 394.27 794.33 394.75 794.33 395.24 C 794.3 396.2 794.07 397.14 793.67 398 C 793.11 398.82 792.38 399.51 791.53 400.01 C 790.82 400.41 790.02 400.62 789.21 400.62 C 788.44 400.62 787.68 400.44 786.99 400.11 C 786.26 399.76 785.6 399.27 785.05 398.67 C 783.83 397.33 783.16 395.58 783.16 393.77 C 783.18 392.32 783.57 390.89 784.29 389.62 C 784.37 389.46 784.37 389.27 784.28 389.12 C 784.19 388.97 784.03 388.87 783.85 388.87 L 667.2 388.87 L 667.42 390.39 C 667.6 391.74 667.81 393.09 668.06 394.42 C 668.26 395.58 668.58 396.71 669 397.8 C 669.19 398.27 669.42 398.72 669.7 399.15 C 669.97 399.55 670.29 399.91 670.66 400.21 C 671.44 400.83 672.41 401.16 673.4 401.14 C 673.96 401.14 674.53 401.04 675.05 400.84 C 675.51 400.66 675.92 400.38 676.26 400.02 C 676.88 399.37 677.21 398.5 677.21 397.6 C 677.22 396.79 676.94 396.01 676.42 395.39 C 675.83 394.73 674.98 394.36 674.09 394.37 L 673.59 394.38 L 673.61 395.38 L 674.11 395.37 C 674.7 395.36 675.27 395.61 675.66 396.04 C 676.02 396.48 676.22 397.03 676.21 397.6 C 676.21 398.24 675.97 398.86 675.54 399.33 C 675.3 399.58 675.01 399.78 674.68 399.91 C 674.27 400.07 673.84 400.14 673.4 400.14 C 672.63 400.16 671.89 399.91 671.28 399.44 C 671 399.2 670.75 398.91 670.54 398.6 C 670.3 398.23 670.09 397.84 669.93 397.43 C 669.53 396.4 669.23 395.33 669.05 394.25 C 668.964 393.79 668.882 393.33 668.805 392.87 L 668.805 392.87 L 668.805 392.87 L 668.805 392.87 L 668.805 392.87 L 668.805 392.87 Z  M 621.957 391.87 L 621.957 391.87 L 513.21 391.87 L 512.71 391.87 L 512.71 392.87 L 513.21 392.87 L 621.798 392.87 C 621.722 393.33 621.643 393.79 621.56 394.25 C 621.37 395.33 621.07 396.4 620.67 397.43 C 620.51 397.84 620.3 398.23 620.06 398.6 C 619.86 398.91 619.6 399.2 619.32 399.44 C 618.72 399.91 617.97 400.16 617.2 400.14 C 616.76 400.14 616.33 400.07 615.92 399.91 C 615.6 399.78 615.31 399.58 615.07 399.33 C 614.63 398.86 614.39 398.24 614.39 397.6 C 614.38 397.03 614.58 396.48 614.94 396.04 C 615.34 395.61 615.9 395.36 616.49 395.37 L 616.99 395.38 L 617.01 394.38 L 616.51 394.37 C 615.62 394.36 614.77 394.73 614.18 395.39 C 613.66 396.01 613.38 396.79 613.39 397.6 C 613.39 398.5 613.73 399.37 614.34 400.02 C 614.68 400.38 615.09 400.66 615.55 400.84 C 616.08 401.04 616.64 401.14 617.2 401.14 C 618.2 401.16 619.17 400.83 619.95 400.21 C 620.31 399.91 620.63 399.55 620.9 399.15 C 621.18 398.72 621.41 398.27 621.6 397.8 C 622.03 396.71 622.34 395.58 622.54 394.42 C 622.79 393.09 623 391.74 623.19 390.39 L 623.41 388.87 L 506.75 388.87 C 506.57 388.87 506.41 388.97 506.32 389.12 C 506.23 389.27 506.23 389.46 506.31 389.62 C 507.03 390.89 507.42 392.32 507.44 393.77 C 507.45 395.58 506.77 397.33 505.55 398.67 C 505 399.27 504.35 399.76 503.61 400.11 C 502.92 400.44 502.16 400.62 501.39 400.62 C 500.58 400.62 499.78 400.41 499.07 400.01 C 498.22 399.51 497.49 398.82 496.94 398 C 496.53 397.14 496.3 396.2 496.27 395.24 C 496.27 394.75 496.36 394.27 496.55 393.81 C 496.72 393.44 496.96 393.1 497.26 392.83 C 497.84 392.32 498.59 392.03 499.37 392.04 C 499.92 392.02 500.46 392.2 500.9 392.53 C 501.3 392.87 501.53 393.37 501.52 393.89 L 501.5 394.22 L 501.47 394.72 L 502.47 394.77 L 502.5 394.28 L 502.52 393.93 C 502.52 393.93 502.52 393.92 502.52 393.91 C 502.53 393.08 502.17 392.28 501.53 391.75 C 500.9 391.27 500.14 391.02 499.36 391.04 C 498.34 391.04 497.36 391.41 496.6 392.08 C 496.18 392.45 495.86 392.91 495.64 393.42 C 495.39 394 495.27 394.63 495.27 395.26 C 495.31 396.38 495.57 397.49 496.06 398.49 C 496.71 399.47 497.56 400.29 498.57 400.88 C 499.43 401.36 500.41 401.62 501.4 401.63 C 502.32 401.62 503.22 401.41 504.05 401.01 C 504.9 400.6 505.66 400.04 506.29 399.34 C 507.68 397.82 508.45 395.83 508.44 393.77 C 508.42 392.42 508.12 391.1 507.57 389.87 L 622.25 389.87 L 622.2 390.25 C 622.19 390.25 622.19 390.26 622.19 390.26 C 622.117 390.797 622.04 391.333 621.957 391.87 L 621.957 391.87 L 621.957 391.87 L 621.957 391.87 L 621.957 391.87 L 621.957 391.87 L 621.957 391.87 Z  M 641.06 406.78 C 641.08 406.89 641.08 406.99 641.08 407.1 C 641.07 407.61 641 408.11 640.85 408.6 C 640.68 409.2 640.41 409.77 640.06 410.28 C 639.57 410.99 638.93 411.58 638.19 412.01 C 637.91 412.19 637.6 412.33 637.29 412.45 C 637.27 412.45 637.26 412.46 637.24 412.46 C 637.23 412.36 637.23 412.26 637.23 412.15 C 637.23 411.03 637.57 409.94 638.2 409.01 C 638.68 408.31 639.3 407.72 640.02 407.27 C 640.3 407.1 640.59 406.95 640.89 406.84 C 640.95 406.82 641.01 406.8 641.06 406.78 L 641.06 406.78 L 641.06 406.78 L 641.06 406.78 Z  M 653.32 412.37 C 653.3 412.36 653.29 412.36 653.27 412.35 C 652.96 412.24 652.65 412.09 652.37 411.92 C 651.63 411.48 650.99 410.89 650.5 410.19 C 650.15 409.67 649.89 409.1 649.71 408.5 C 649.56 408.02 649.49 407.51 649.48 407.01 C 649.48 406.9 649.49 406.8 649.5 406.69 C 649.56 406.71 649.61 406.72 649.67 406.75 C 649.97 406.86 650.26 407 650.54 407.18 C 651.26 407.62 651.88 408.22 652.36 408.92 C 652.99 409.84 653.33 410.93 653.33 412.05 C 653.33 412.16 653.33 412.27 653.32 412.37 L 653.32 412.37 L 653.32 412.37 Z  M 645.2 388.572 L 645.35 388.42 L 645.7 388.77 C 646.52 389.56 647.17 390.5 647.64 391.53 C 648.05 392.45 648.26 393.44 648.27 394.44 C 648.25 395.79 647.89 397.11 647.21 398.28 C 646.839 398.924 646.402 399.525 645.9 400.072 C 646.132 400.297 646.381 400.505 646.64 400.7 C 647.83 401.6 649.16 402.3 650.58 402.76 C 652.18 403.28 653.84 403.55 655.52 403.54 C 656.8 403.55 658.05 403.29 659.23 402.8 C 660.26 402.37 661.19 401.73 661.97 400.92 C 662.7 400.17 663.28 399.29 663.68 398.32 C 664.06 397.41 664.26 396.43 664.27 395.44 C 664.28 394.13 663.87 392.86 663.1 391.82 C 662.68 391.27 662.18 390.81 661.6 390.45 C 660.93 390.03 660.2 389.72 659.44 389.54 C 659.18 389.51 658.92 389.49 658.66 389.49 C 658.08 389.49 657.5 389.58 656.95 389.76 C 656.51 389.91 656.11 390.14 655.76 390.44 C 655.19 390.94 654.85 391.65 654.84 392.41 C 654.85 393.04 655.08 393.64 655.5 394.1 C 656.06 394.69 656.8 395.08 657.6 395.21 L 658.1 395.3 L 657.94 396.28 L 657.44 396.2 C 656.42 396.04 655.48 395.54 654.77 394.78 C 654.18 394.13 653.85 393.29 653.84 392.41 C 653.85 391.36 654.32 390.37 655.11 389.68 C 655.55 389.3 656.07 389 656.63 388.81 C 657.29 388.59 657.97 388.48 658.67 388.49 C 658.98 388.49 659.3 388.51 659.61 388.55 C 660.5 388.76 661.35 389.11 662.13 389.6 C 662.81 390.03 663.41 390.58 663.9 391.22 C 664.8 392.44 665.28 393.92 665.27 395.44 C 665.26 396.56 665.03 397.67 664.6 398.71 C 664.15 399.79 663.5 400.78 662.69 401.62 C 661.81 402.52 660.77 403.23 659.62 403.73 C 658.32 404.27 656.93 404.55 655.52 404.54 C 653.74 404.55 651.97 404.27 650.27 403.71 C 648.74 403.22 647.31 402.47 646.03 401.5 C 645.739 401.277 645.459 401.041 645.198 400.785 C 644.936 401.041 644.654 401.277 644.36 401.5 C 643.09 402.47 641.66 403.22 640.13 403.71 C 638.43 404.27 636.66 404.55 634.87 404.54 C 633.47 404.55 632.08 404.27 630.78 403.73 C 629.63 403.23 628.59 402.52 627.71 401.62 C 626.9 400.78 626.25 399.79 625.8 398.71 C 625.36 397.67 625.14 396.56 625.13 395.44 C 625.11 393.92 625.6 392.44 626.5 391.22 C 626.99 390.58 627.59 390.03 628.27 389.6 C 629.05 389.11 629.9 388.76 630.79 388.55 C 631.1 388.51 631.42 388.49 631.73 388.49 C 632.42 388.48 633.11 388.59 633.77 388.81 C 634.33 389 634.85 389.3 635.29 389.68 C 636.08 390.37 636.54 391.36 636.55 392.41 C 636.55 393.29 636.22 394.13 635.63 394.78 C 634.92 395.54 633.98 396.04 632.96 396.2 L 632.46 396.28 L 632.3 395.3 L 632.79 395.21 C 633.6 395.08 634.34 394.69 634.9 394.1 C 635.32 393.64 635.55 393.04 635.55 392.41 C 635.54 391.65 635.21 390.94 634.64 390.44 C 634.29 390.14 633.89 389.91 633.45 389.76 C 632.9 389.58 632.32 389.49 631.74 389.49 C 631.48 389.49 631.22 389.51 630.96 389.54 C 630.2 389.72 629.47 390.03 628.8 390.45 C 628.22 390.81 627.72 391.27 627.3 391.82 C 626.53 392.86 626.12 394.13 626.13 395.44 C 626.14 396.43 626.34 397.41 626.72 398.32 C 627.12 399.29 627.7 400.17 628.43 400.92 C 629.21 401.73 630.14 402.37 631.17 402.8 C 632.34 403.29 633.6 403.55 634.88 403.54 C 636.55 403.55 638.22 403.28 639.82 402.76 C 641.24 402.3 642.57 401.6 643.76 400.7 C 644.019 400.505 644.267 400.298 644.499 400.073 C 643.998 399.526 643.561 398.924 643.19 398.28 C 642.51 397.11 642.15 395.79 642.13 394.44 C 642.14 393.44 642.35 392.45 642.76 391.53 C 643.23 390.5 643.88 389.56 644.7 388.77 L 645.05 388.42 L 645.2 388.572 L 645.2 388.572 L 645.2 388.572 L 645.2 388.572 Z  M 641.743 405.83 C 642.26 406.215 642.324 408.742 640.88 410.849 C 639.437 412.956 636.926 413.851 636.512 413.465 C 636.125 413.105 635.931 410.553 637.374 408.447 C 638.818 406.34 641.187 405.418 641.743 405.83 L 641.743 405.83 L 641.743 405.83 L 641.743 405.83 Z  M 653.187 408.353 C 654.63 410.46 654.436 413.011 654.049 413.371 C 653.635 413.757 651.124 412.862 649.681 410.755 C 648.237 408.648 648.301 406.122 648.818 405.737 C 649.374 405.324 651.743 406.246 653.187 408.353 L 653.187 408.353 L 653.187 408.353 Z  M 645.15 409.25 C 645.16 409.26 645.17 409.27 645.18 409.28 C 645.45 409.58 645.69 409.91 645.87 410.27 C 646.45 411.34 646.75 412.54 646.75 413.75 C 646.75 414.97 646.44 416.17 645.86 417.24 C 645.69 417.58 645.47 417.9 645.22 418.19 C 644.95 417.89 644.71 417.56 644.52 417.2 C 643.92 416.15 643.6 414.96 643.6 413.75 C 643.59 412.53 643.89 411.33 644.45 410.25 C 644.63 409.89 644.86 409.56 645.13 409.27 C 645.14 409.27 645.14 409.26 645.15 409.25 L 645.15 409.25 Z  M 645.173 408.143 C 645.955 408.174 647.75 410.658 647.75 413.756 C 647.75 416.853 645.851 419.47 645.173 419.368 C 644.539 419.273 642.595 416.853 642.595 413.756 C 642.595 410.658 644.334 408.111 645.173 408.143 L 645.173 408.143 Z " fill-rule="evenodd" fill="rgb(0,0,0)"/></svg>