<?xml version="1.0" encoding="iso-8859-1"?>
<!-- Uploaded to: SVG Repo, www.svgrepo.com, Generator: SVG Repo Mixer Tools -->
<!DOCTYPE svg PUBLIC "-//W3C//DTD SVG 1.1//EN" "http://www.w3.org/Graphics/SVG/1.1/DTD/svg11.dtd">
<svg fill="white" version="1.1" id="Capa_1" xmlns="http://www.w3.org/2000/svg" xmlns:xlink="http://www.w3.org/1999/xlink" 
	 width="800px" height="800px" viewBox="0 0 540.596 540.596"
	 xml:space="preserve">
<g>
	<g>
		<path d="M156.686,0c-20.225,0-36.682,16.457-36.682,36.682v467.215c0,20.225,16.457,36.699,36.682,36.699H383.91
			c20.225,0,36.682-16.475,36.682-36.699V36.682C420.592,16.457,404.135,0,383.91,0H156.686z M406.248,36.682v467.215
			c0,12.326-10.013,22.355-22.338,22.355H156.686c-12.307,0-22.338-10.029-22.338-22.355V36.682
			c0-12.307,10.031-22.338,22.338-22.338H383.91C396.235,14.344,406.248,24.375,406.248,36.682z"/>
		<path d="M148.548,63.246V473.43c0,1.979,1.606,3.586,3.586,3.586h236.337c1.979,0,3.586-1.607,3.586-3.586V63.246
			c0-1.979-1.606-3.586-3.586-3.586H152.134C150.154,59.66,148.548,61.267,148.548,63.246z M165.282,66.832h210.04
			c5.279,0,9.562,4.284,9.562,9.562v383.887c0,5.279-4.283,9.562-9.562,9.562h-210.04c-5.278,0-9.562-4.283-9.562-9.562V76.395
			C155.72,71.106,159.994,66.832,165.282,66.832z"/>
		<path d="M250.13,37.819h40.344c1.979,0,3.586-1.606,3.586-3.586c0-1.979-1.606-3.586-3.586-3.586H250.13
			c-1.979,0-3.586,1.607-3.586,3.586C246.544,36.223,248.151,37.819,250.13,37.819z"/>
		<path d="M290.953,485.211h-41.311c-8.482,0-15.386,6.895-15.386,15.367v2.467c0,8.482,6.914,15.387,15.386,15.387h41.311
			c8.481,0,15.386-6.914,15.386-15.387v-2.467C306.349,492.096,299.435,485.211,290.953,485.211z M299.177,503.045
			c0,4.543-3.682,8.215-8.215,8.215h-41.31c-4.523,0-8.214-3.682-8.214-8.215v-2.467c0-4.523,3.701-8.195,8.214-8.195h41.31
			c4.543,0,8.215,3.682,8.215,8.195V503.045z"/>
		<path d="M305.593,298.904c9.104-20.09,6.56-44.513-8.597-62.462c-20.999-24.853-58.293-27.98-83.136-6.99
			c-24.853,20.999-27.98,58.292-6.98,83.136c15.156,17.949,38.814,24.537,60.138,18.916c5.106-1.35,11.771,0.094,15.176,4.131
			l18.877,22.338c6.033,7.143,16.533,8.223,23.408,2.418c6.876-5.805,7.555-16.342,1.521-23.484l-18.876-22.338
			C303.719,310.523,303.413,303.715,305.593,298.904z M210.245,309.738c-19.412-22.979-16.505-57.489,6.474-76.901
			c22.979-19.422,57.49-16.524,76.902,6.464c19.421,22.979,16.514,57.49-6.465,76.902
			C264.178,335.625,229.667,332.717,210.245,309.738z M304.445,355.113l-18.14-21.469c-3.404-4.035-3.787-8.568-1.062-10.441
			c1.625-1.119,3.213-2.324,4.752-3.625c1.54-1.301,3.003-2.668,4.38-4.092c2.305-2.371,6.694-1.234,10.098,2.801l18.141,21.469
			c4.466,5.277,4.007,13.014-0.994,17.25C316.609,361.242,308.911,360.391,304.445,355.113z"/>
		<path d="M280.052,250.767c-13.092-15.51-36.366-17.47-51.877-4.36c-15.5,13.11-17.461,36.375-4.36,51.877
			c13.101,15.51,36.376,17.461,51.877,4.359C291.201,289.533,293.152,266.268,280.052,250.767z M272.842,299.258
			c-13.646,11.523-34.12,9.803-45.642-3.844c-11.523-13.637-9.792-34.119,3.834-45.632c13.646-11.522,34.109-9.801,45.632,3.835
			C288.198,267.262,286.478,287.736,272.842,299.258z"/>
		<path d="M238.521,254.095c-11.446,9.677-12.9,26.88-3.223,38.335c0.536,0.623,1.463,0.709,2.085,0.184
			c0.631-0.527,0.698-1.455,0.182-2.086c-8.625-10.213-7.354-25.551,2.869-34.176c0.622-0.536,0.698-1.454,0.182-2.075
			C240.08,253.645,239.153,253.559,238.521,254.095z"/>
	</g>
</g>
</svg>