<?xml version="1.0" encoding="UTF-8" standalone="no"?><svg xmlns="http://www.w3.org/2000/svg" xmlns:xlink="http://www.w3.org/1999/xlink" style="isolation:isolate" viewBox="479.65 308.099881 333.78 42.900119"><path d=" M 794.046 346.5 L 496.537 346.5 L 496.537 346.5 L 489.292 351 L 481.375 346.083 L 489.292 341.167 L 489.292 341.167 L 496.269 345.5 L 794.314 345.5 L 801.292 341.167 L 801.292 341.167 L 809.208 346.083 L 801.292 351 L 794.046 346.5 Z  M 779.687 341.502 L 752.066 341.515 C 753.559 341.145 755.013 340.646 756.42 340.03 C 758.15 339.27 759.81 338.37 761.38 337.33 C 763 336.27 764.54 335.11 766.01 333.86 C 767.41 335.13 768.91 336.3 770.49 337.34 C 772.11 338.42 773.83 339.34 775.62 340.11 C 776.944 340.672 778.303 341.137 779.687 341.502 L 779.687 341.502 L 779.687 341.502 L 779.687 341.502 L 779.687 341.502 L 779.687 341.502 L 779.687 341.502 L 779.687 341.502 L 779.687 341.502 L 779.687 341.502 L 779.687 341.502 Z  M 512.909 341.627 L 541.428 341.614 C 539.798 341.236 538.197 340.702 536.67 340.03 C 534.94 339.27 533.28 338.37 531.7 337.33 C 530.09 336.27 528.54 335.11 527.07 333.86 C 525.67 335.13 524.17 336.3 522.59 337.34 C 520.97 338.42 519.26 339.34 517.47 340.11 C 515.99 340.738 514.464 341.245 512.909 341.627 L 512.909 341.627 L 512.909 341.627 L 512.909 341.627 L 512.909 341.627 L 512.909 341.627 L 512.909 341.627 L 512.909 341.627 L 512.909 341.627 L 512.909 341.627 L 512.909 341.627 L 512.909 341.627 Z  M 627.845 341.573 C 629.912 341.281 631.951 340.799 633.94 340.13 C 637.12 339.07 640.09 337.47 642.73 335.39 C 643.502 334.784 644.237 334.125 644.924 333.419 C 645.641 334.138 646.401 334.816 647.2 335.45 C 649.83 337.5 652.8 339.09 655.97 340.15 C 657.906 340.797 659.893 341.267 661.909 341.558 L 627.845 341.573 L 627.845 341.573 L 627.845 341.573 L 627.845 341.573 L 627.845 341.573 L 627.845 341.573 L 627.845 341.573 L 627.845 341.573 L 627.845 341.573 L 627.845 341.573 L 627.845 341.573 L 627.845 341.573 L 627.845 341.573 L 627.845 341.573 Z  M 648.088 327.401 C 648.15 327.049 648.177 326.691 648.18 326.33 C 648.18 325.31 647.96 324.3 647.55 323.37 C 647.08 322.33 646.42 321.38 645.6 320.58 L 645.24 320.23 L 645.21 320.26 L 645.21 320.26 L 644.85 320.61 C 644.03 321.41 643.36 322.36 642.89 323.41 C 642.48 324.34 642.26 325.35 642.26 326.38 C 642.274 327.356 642.461 328.316 642.826 329.215 C 642.619 328.882 642.419 328.544 642.23 328.2 C 640.94 325.92 640.25 323.35 640.22 320.74 C 640.23 318.78 640.64 316.85 641.42 315.07 C 642.309 313.111 643.535 311.326 645.049 309.803 C 646.49 311.295 647.668 313.03 648.52 314.92 C 649.31 316.71 649.72 318.64 649.72 320.6 C 649.693 322.962 649.134 325.285 648.088 327.401 L 648.088 327.401 L 648.088 327.401 L 648.088 327.401 L 648.088 327.401 L 648.088 327.401 L 648.088 327.401 L 648.088 327.401 L 648.088 327.401 L 648.088 327.401 L 648.088 327.401 L 648.088 327.401 L 648.088 327.401 L 648.088 327.401 L 648.088 327.401 L 648.088 327.401 Z  M 645.24 321.652 C 645.815 322.282 646.287 322.999 646.64 323.78 C 646.99 324.58 647.18 325.45 647.18 326.33 C 647.17 327.51 646.85 328.67 646.27 329.7 C 645.963 330.243 645.608 330.752 645.21 331.226 C 644.814 330.766 644.467 330.264 644.17 329.73 C 643.59 328.71 643.27 327.55 643.26 326.37 C 643.26 325.49 643.45 324.62 643.8 323.82 C 644.167 323.026 644.651 322.29 645.24 321.652 L 645.24 321.652 L 645.24 321.652 L 645.24 321.652 L 645.24 321.652 L 645.24 321.652 L 645.24 321.652 L 645.24 321.652 L 645.24 321.652 L 645.24 321.652 L 645.24 321.652 L 645.24 321.652 L 645.24 321.652 L 645.24 321.652 L 645.24 321.652 L 645.24 321.652 L 645.24 321.652 Z  M 784.5 348.5 L 785 348.5 L 785 349.5 L 784.5 349.5 L 506.25 349.5 L 505.75 349.5 L 505.75 348.5 L 506.25 348.5 L 784.5 348.5 L 784.5 348.5 L 784.5 348.5 L 784.5 348.5 L 784.5 348.5 L 784.5 348.5 L 784.5 348.5 L 784.5 348.5 L 784.5 348.5 L 784.5 348.5 L 784.5 348.5 L 784.5 348.5 L 784.5 348.5 L 784.5 348.5 L 784.5 348.5 Z  M 519.24 326.55 C 519.26 326.55 519.27 326.56 519.29 326.57 C 519.6 326.68 519.91 326.82 520.19 327 C 520.93 327.43 521.57 328.02 522.06 328.73 C 522.41 329.25 522.68 329.81 522.85 330.41 C 523 330.9 523.07 331.4 523.08 331.91 C 523.08 332.02 523.08 332.12 523.06 332.23 C 523.01 332.21 522.95 332.19 522.89 332.17 C 522.59 332.06 522.3 331.91 522.02 331.74 C 521.3 331.29 520.68 330.7 520.2 330 C 519.57 329.08 519.23 327.99 519.23 326.87 C 519.23 326.76 519.23 326.65 519.24 326.55 L 519.24 326.55 L 519.24 326.55 L 519.24 326.55 L 519.24 326.55 L 519.24 326.55 L 519.24 326.55 L 519.24 326.55 L 519.24 326.55 Z  M 770.02 332.23 C 770.01 332.12 770 332.02 770.01 331.91 C 770.01 331.4 770.09 330.9 770.24 330.41 C 770.41 329.81 770.68 329.25 771.03 328.73 C 771.52 328.02 772.15 327.43 772.89 327 C 773.18 326.82 773.48 326.68 773.8 326.57 C 773.81 326.56 773.83 326.55 773.84 326.55 C 773.85 326.65 773.85 326.76 773.85 326.86 C 773.86 327.98 773.52 329.07 772.89 330 C 772.41 330.7 771.78 331.29 771.06 331.74 C 770.79 331.91 770.5 332.06 770.19 332.17 C 770.14 332.19 770.08 332.21 770.02 332.23 L 770.02 332.23 L 770.02 332.23 L 770.02 332.23 L 770.02 332.23 L 770.02 332.23 L 770.02 332.23 L 770.02 332.23 Z  M 531.5 332.32 C 531.49 332.22 531.48 332.11 531.48 332 C 531.49 331.5 531.56 330.99 531.71 330.51 C 531.89 329.91 532.15 329.34 532.5 328.82 C 532.99 328.12 533.63 327.53 534.37 327.09 C 534.65 326.92 534.96 326.77 535.27 326.66 C 535.29 326.65 535.3 326.65 535.32 326.64 C 535.33 326.75 535.33 326.85 535.33 326.95 C 535.33 328.07 534.99 329.17 534.36 330.09 C 533.88 330.79 533.26 331.39 532.54 331.83 C 532.26 332.01 531.97 332.15 531.67 332.26 C 531.61 332.29 531.56 332.31 531.5 332.32 L 531.5 332.32 L 531.5 332.32 L 531.5 332.32 L 531.5 332.32 L 531.5 332.32 L 531.5 332.32 Z  M 757.77 326.64 C 757.78 326.65 757.8 326.65 757.81 326.66 C 758.13 326.77 758.43 326.92 758.72 327.09 C 759.46 327.53 760.09 328.12 760.58 328.82 C 760.93 329.34 761.2 329.91 761.37 330.51 C 761.52 330.99 761.6 331.5 761.6 332 C 761.61 332.11 761.6 332.22 761.59 332.32 C 761.53 332.31 761.47 332.29 761.42 332.26 C 761.11 332.15 760.82 332.01 760.55 331.83 C 759.82 331.39 759.2 330.79 758.72 330.09 C 758.09 329.17 757.76 328.08 757.76 326.96 C 757.75 326.85 757.76 326.75 757.77 326.64 L 757.77 326.64 L 757.77 326.64 L 757.77 326.64 L 757.77 326.64 L 757.77 326.64 Z  M 527.22 320.82 C 527.47 321.11 527.69 321.43 527.86 321.77 C 528.44 322.84 528.75 324.04 528.75 325.26 C 528.75 326.48 528.45 327.67 527.87 328.75 C 527.69 329.1 527.45 329.44 527.18 329.73 C 527.17 329.74 527.16 329.75 527.15 329.76 C 527.14 329.75 527.14 329.75 527.13 329.74 C 526.86 329.45 526.63 329.12 526.45 328.76 C 525.89 327.68 525.59 326.48 525.6 325.26 C 525.6 324.05 525.92 322.87 526.52 321.82 C 526.71 321.45 526.95 321.12 527.22 320.82 L 527.22 320.82 L 527.22 320.82 L 527.22 320.82 L 527.22 320.82 Z  M 765.94 329.76 C 765.93 329.75 765.92 329.74 765.91 329.73 C 765.63 329.44 765.4 329.1 765.22 328.75 C 764.64 327.67 764.33 326.48 764.34 325.26 C 764.34 324.04 764.65 322.84 765.22 321.77 C 765.4 321.43 765.61 321.11 765.86 320.82 C 766.14 321.12 766.37 321.45 766.57 321.81 C 767.17 322.86 767.48 324.05 767.49 325.26 C 767.49 326.48 767.2 327.68 766.63 328.76 C 766.46 329.12 766.23 329.45 765.96 329.74 C 765.95 329.75 765.94 329.75 765.94 329.76 L 765.94 329.76 L 765.94 329.76 L 765.94 329.76 Z  M 489.29 342.34 L 495.31 346.08 L 489.29 349.82 L 483.27 346.08 L 489.29 342.34 L 489.29 342.34 L 489.29 342.34 Z  M 519.374 330.565 C 517.931 328.458 518.125 325.906 518.512 325.546 C 518.926 325.161 521.437 326.056 522.88 328.163 C 524.324 330.269 524.26 332.796 523.743 333.181 C 523.187 333.594 520.818 332.672 519.374 330.565 L 519.374 330.565 L 519.374 330.565 L 519.374 330.565 L 519.374 330.565 L 519.374 330.565 L 519.374 330.565 L 519.374 330.565 L 519.374 330.565 Z  M 769.343 333.181 C 768.825 332.796 768.762 330.269 770.205 328.163 C 771.649 326.056 774.159 325.161 774.574 325.546 C 774.96 325.906 775.155 328.458 773.711 330.565 C 772.268 332.672 769.898 333.594 769.343 333.181 L 769.343 333.181 L 769.343 333.181 L 769.343 333.181 L 769.343 333.181 L 769.343 333.181 L 769.343 333.181 L 769.343 333.181 Z  M 530.818 333.275 C 530.301 332.89 530.237 330.363 531.681 328.256 C 533.124 326.15 535.635 325.255 536.049 325.64 C 536.436 326 536.63 328.552 535.187 330.659 C 533.743 332.765 531.374 333.687 530.818 333.275 L 530.818 333.275 L 530.818 333.275 L 530.818 333.275 L 530.818 333.275 L 530.818 333.275 L 530.818 333.275 Z  M 757.898 330.659 C 756.455 328.552 756.649 326 757.036 325.64 C 757.45 325.255 759.961 326.15 761.404 328.256 C 762.848 330.363 762.785 332.89 762.267 333.275 C 761.712 333.687 759.342 332.765 757.898 330.659 L 757.898 330.659 L 757.898 330.659 L 757.898 330.659 L 757.898 330.659 L 757.898 330.659 Z  M 524.595 325.256 C 524.595 322.158 526.539 319.738 527.173 319.643 C 527.851 319.542 529.75 322.158 529.75 325.256 C 529.75 328.353 527.955 330.838 527.173 330.868 C 526.334 330.901 524.595 328.353 524.595 325.256 L 524.595 325.256 L 524.595 325.256 L 524.595 325.256 L 524.595 325.256 Z  M 765.913 330.868 C 765.131 330.838 763.335 328.353 763.335 325.256 C 763.335 322.158 765.234 319.542 765.913 319.643 C 766.546 319.738 768.49 322.158 768.49 325.256 C 768.49 328.353 766.751 330.901 765.913 330.868 L 765.913 330.868 L 765.913 330.868 L 765.913 330.868 Z  M 784.361 342.5 L 507.38 342.62 L 506.88 342.63 L 506.879 342.555 L 506.879 342.555 C 506.126 342.526 505.373 342.472 504.62 342.39 C 504 342.329 503.384 342.237 502.775 342.114 C 501.755 341.995 500.74 341.827 499.73 341.63 C 497.83 341.25 495.96 340.73 494.14 340.06 C 492.54 339.47 490.99 338.75 489.52 337.89 C 488.21 337.12 486.98 336.22 485.84 335.21 C 483.84 333.44 482.23 331.27 481.14 328.83 C 480.16 326.62 479.66 324.24 479.65 321.83 C 479.65 319.87 479.99 317.93 480.64 316.08 C 481.27 314.27 482.22 312.59 483.44 311.1 C 484.36 310.15 485.46 309.37 486.66 308.81 C 487.66 308.35 488.73 308.11 489.83 308.1 C 491.49 308.09 493.1 308.71 494.31 309.85 C 495.47 310.94 496.14 312.46 496.15 314.06 C 496.15 314.76 496.02 315.45 495.78 316.11 L 495.61 316.58 L 494.67 316.23 L 494.84 315.76 C 495.04 315.22 495.15 314.64 495.15 314.06 C 495.14 312.74 494.59 311.48 493.63 310.58 C 492.6 309.62 491.24 309.09 489.83 309.1 C 488.88 309.11 487.95 309.32 487.08 309.72 C 486 310.22 485.02 310.92 484.19 311.77 C 483.05 313.15 482.17 314.72 481.58 316.41 C 480.97 318.15 480.65 319.98 480.65 321.83 C 480.66 324.1 481.13 326.34 482.05 328.42 C 483.09 330.73 484.61 332.79 486.51 334.47 C 487.59 335.43 488.77 336.29 490.03 337.02 C 491.44 337.85 492.94 338.56 494.48 339.12 C 495.386 339.453 496.306 339.749 497.243 339.991 C 496.255 339.323 495.435 338.42 494.85 337.37 C 494.37 336.45 494.12 335.43 494.12 334.4 C 494.11 332.67 494.78 331 495.97 329.75 C 496.74 329.14 497.69 328.82 498.67 328.84 C 499.46 328.84 500.25 329.02 500.96 329.37 C 501.26 329.51 501.54 329.71 501.78 329.95 C 502.02 330.17 502.18 330.46 502.24 330.78 L 502.34 331.27 L 501.36 331.46 L 501.26 330.97 C 501.24 330.86 501.18 330.75 501.09 330.67 C 500.92 330.5 500.73 330.37 500.52 330.27 C 499.94 329.98 499.31 329.84 498.66 329.84 C 497.94 329.82 497.23 330.05 496.65 330.5 C 495.66 331.55 495.11 332.95 495.12 334.4 C 495.12 335.27 495.33 336.12 495.74 336.89 C 496.24 337.81 496.96 338.6 497.83 339.18 C 498.38 339.56 498.97 339.88 499.58 340.14 C 500.32 340.46 501.08 340.71 501.86 340.9 C 502.211 340.985 502.563 341.062 502.916 341.125 C 504.072 341.297 505.236 341.41 506.4 341.48 C 510.07 341.4 513.7 340.62 517.07 339.19 C 518.81 338.45 520.47 337.55 522.04 336.51 C 523.83 335.33 525.5 333.99 527.05 332.51 C 528.68 333.96 530.42 335.3 532.25 336.5 C 533.78 337.5 535.39 338.38 537.07 339.12 C 538.61 339.79 540.21 340.32 541.85 340.68 C 543.41 341.02 545 341.2 546.6 341.2 L 547.3 341.19 C 548.29 341.16 549.27 341.06 550.24 340.9 C 551.03 340.78 551.8 340.58 552.56 340.31 C 553.7 339.93 554.74 339.29 555.59 338.43 C 556.27 337.69 556.76 336.81 557.04 335.85 C 557.32 334.85 557.45 333.81 557.43 332.77 L 557.41 331.85 C 557.31 331.05 556.93 330.32 556.32 329.8 C 555.8 329.36 555.13 329.12 554.44 329.12 C 553.9 329.11 553.38 329.29 552.96 329.64 C 552.54 330.04 552.3 330.6 552.31 331.18 L 552.32 331.68 L 551.32 331.69 L 551.31 331.19 C 551.3 330.32 551.66 329.48 552.3 328.89 C 552.9 328.38 553.67 328.1 554.46 328.12 C 555.38 328.12 556.26 328.45 556.97 329.04 C 557.77 329.73 558.29 330.7 558.4 331.76 C 558.4 331.77 558.41 331.79 558.41 331.8 L 558.43 332.75 C 558.43 332.75 558.43 332.75 558.43 332.75 C 558.45 333.89 558.31 335.02 558 336.12 C 557.68 337.24 557.1 338.27 556.31 339.12 C 555.35 340.1 554.18 340.83 552.88 341.26 C 552.498 341.392 552.112 341.508 551.723 341.609 L 619.115 341.578 L 619.115 341.578 L 619.115 341.578 C 617.529 341.297 615.974 340.842 614.48 340.22 C 612.1 339.2 609.94 337.72 608.13 335.86 C 606.44 334.12 605.1 332.07 604.17 329.83 C 603.28 327.7 602.81 325.41 602.8 323.1 C 602.79 321.56 603.02 320.02 603.48 318.55 C 603.95 317.07 604.66 315.68 605.6 314.44 C 606.6 313.14 607.82 312.02 609.21 311.14 C 610.8 310.15 612.54 309.42 614.37 308.99 C 615 308.91 615.64 308.88 616.28 308.88 C 617.7 308.86 619.1 309.08 620.44 309.53 C 621.56 309.9 622.6 310.5 623.49 311.27 C 625.05 312.62 625.96 314.58 625.98 316.65 C 625.97 318.37 625.33 320.03 624.18 321.31 C 623.53 322.03 622.77 322.62 621.93 323.07 C 620.95 323.59 619.89 323.96 618.81 324.16 L 618.31 324.25 L 618.13 323.27 L 618.62 323.18 C 619.61 322.99 620.57 322.66 621.46 322.19 C 622.2 321.79 622.87 321.27 623.43 320.64 C 624.42 319.55 624.97 318.13 624.98 316.65 C 624.96 314.88 624.18 313.19 622.83 312.03 C 622.04 311.34 621.12 310.81 620.12 310.47 C 618.89 310.06 617.59 309.86 616.29 309.87 C 615.71 309.88 615.12 309.91 614.54 309.97 C 612.84 310.38 611.22 311.07 609.74 311.99 C 608.45 312.8 607.32 313.84 606.39 315.05 C 605.53 316.19 604.87 317.48 604.44 318.84 C 604.01 320.22 603.79 321.66 603.8 323.1 C 603.81 325.28 604.25 327.44 605.09 329.45 C 605.97 331.57 607.25 333.51 608.85 335.16 C 610.56 336.93 612.61 338.33 614.87 339.29 C 617.43 340.37 620.19 340.92 622.97 340.91 C 626.59 340.92 630.19 340.34 633.62 339.18 C 636.358 338.27 638.936 336.939 641.273 335.248 C 640.895 335.421 640.506 335.57 640.11 335.7 C 638.42 336.26 636.65 336.55 634.87 336.54 C 633.47 336.55 632.08 336.27 630.78 335.73 C 629.63 335.23 628.59 334.52 627.71 333.62 C 626.9 332.78 626.25 331.79 625.8 330.71 C 625.36 329.67 625.14 328.56 625.13 327.44 C 625.11 325.92 625.6 324.44 626.5 323.22 C 626.99 322.58 627.59 322.03 628.27 321.6 C 629.05 321.11 629.9 320.76 630.79 320.55 C 631.1 320.51 631.42 320.49 631.73 320.49 C 632.42 320.48 633.11 320.59 633.77 320.81 C 634.33 321 634.85 321.3 635.29 321.68 C 636.08 322.37 636.54 323.36 636.55 324.41 C 636.55 325.29 636.22 326.13 635.63 326.78 C 634.92 327.54 633.98 328.04 632.96 328.2 L 632.46 328.28 L 632.3 327.3 L 632.79 327.21 C 633.6 327.08 634.34 326.69 634.9 326.1 C 635.32 325.64 635.55 325.04 635.55 324.41 C 635.54 323.65 635.21 322.94 634.64 322.44 C 634.29 322.14 633.89 321.91 633.45 321.76 C 632.9 321.58 632.32 321.49 631.74 321.49 C 631.48 321.49 631.22 321.51 630.96 321.54 C 630.2 321.72 629.47 322.03 628.8 322.45 C 628.22 322.81 627.72 323.27 627.3 323.82 C 626.53 324.86 626.12 326.13 626.13 327.44 C 626.14 328.43 626.34 329.41 626.72 330.32 C 627.12 331.29 627.7 332.17 628.43 332.92 C 629.21 333.73 630.14 334.37 631.17 334.8 C 632.34 335.29 633.6 335.55 634.88 335.54 C 636.55 335.55 638.21 335.28 639.79 334.75 C 641.21 334.28 642.53 333.57 643.71 332.66 C 643.808 332.584 643.905 332.505 644 332.426 C 643.952 332.375 643.906 332.323 643.86 332.27 C 642.9 331.17 642.06 329.97 641.35 328.69 C 639.99 326.26 639.25 323.53 639.22 320.74 C 639.23 318.65 639.67 316.57 640.51 314.66 C 641.474 312.536 642.815 310.595 644.476 308.962 L 644.476 308.962 L 644.476 308.962 L 645.04 308.39 L 645.4 308.74 C 647.09 310.39 648.46 312.35 649.43 314.51 C 650.28 316.43 650.72 318.51 650.72 320.6 C 650.69 323.4 649.96 326.15 648.58 328.59 C 647.879 329.864 647.051 331.06 646.105 332.159 L 646.105 332.159 C 646.3 332.343 646.506 332.516 646.72 332.68 C 647.89 333.59 649.21 334.29 650.61 334.76 C 652.2 335.28 653.86 335.55 655.52 335.54 C 656.8 335.55 658.05 335.29 659.23 334.8 C 660.26 334.37 661.19 333.73 661.97 332.92 C 662.7 332.17 663.28 331.29 663.68 330.32 C 664.06 329.41 664.26 328.43 664.27 327.44 C 664.28 326.13 663.87 324.86 663.1 323.82 C 662.68 323.27 662.18 322.81 661.6 322.45 C 660.93 322.03 660.2 321.72 659.44 321.54 C 659.18 321.51 658.92 321.49 658.66 321.49 C 658.08 321.49 657.5 321.58 656.95 321.76 C 656.51 321.91 656.11 322.14 655.76 322.44 C 655.19 322.94 654.85 323.65 654.84 324.41 C 654.85 325.04 655.08 325.64 655.5 326.1 C 656.06 326.69 656.8 327.08 657.6 327.21 L 658.1 327.3 L 657.94 328.28 L 657.44 328.2 C 656.42 328.04 655.48 327.54 654.77 326.78 C 654.18 326.13 653.85 325.29 653.84 324.41 C 653.85 323.36 654.32 322.37 655.11 321.68 C 655.55 321.3 656.07 321 656.63 320.81 C 657.29 320.59 657.97 320.48 658.67 320.49 C 658.98 320.49 659.3 320.51 659.61 320.55 C 660.5 320.76 661.35 321.11 662.13 321.6 C 662.81 322.03 663.41 322.58 663.9 323.22 C 664.8 324.44 665.28 325.92 665.27 327.44 C 665.26 328.56 665.03 329.67 664.6 330.71 C 664.15 331.79 663.5 332.78 662.69 333.62 C 661.81 334.52 660.77 335.23 659.62 335.73 C 658.32 336.27 656.93 336.55 655.52 336.54 C 653.75 336.55 651.98 336.27 650.3 335.7 C 649.357 335.39 648.457 334.984 647.607 334.489 C 647.677 334.547 647.748 334.604 647.82 334.66 C 650.36 336.64 653.23 338.18 656.29 339.2 C 659.72 340.34 663.31 340.92 666.93 340.91 C 669.71 340.92 672.46 340.37 675.03 339.29 C 677.29 338.33 679.34 336.93 681.05 335.16 C 682.65 333.51 683.93 331.57 684.81 329.45 C 685.65 327.44 686.09 325.28 686.1 323.1 C 686.11 321.66 685.89 320.22 685.46 318.84 C 685.03 317.48 684.37 316.19 683.5 315.05 C 682.58 313.84 681.45 312.8 680.16 311.99 C 678.68 311.07 677.06 310.38 675.36 309.97 C 674.78 309.91 674.19 309.88 673.61 309.87 C 672.31 309.86 671.01 310.06 669.77 310.47 C 668.78 310.81 667.86 311.34 667.07 312.03 C 665.72 313.19 664.94 314.88 664.92 316.65 C 664.93 318.13 665.48 319.55 666.47 320.64 C 667.03 321.27 667.7 321.79 668.44 322.19 C 669.33 322.66 670.29 322.99 671.28 323.18 L 671.77 323.27 L 671.59 324.25 L 671.09 324.16 C 670 323.96 668.95 323.59 667.97 323.07 C 667.13 322.62 666.37 322.03 665.72 321.31 C 664.57 320.03 663.93 318.37 663.92 316.65 C 663.94 314.58 664.85 312.62 666.41 311.27 C 667.3 310.5 668.34 309.9 669.46 309.53 C 670.8 309.08 672.2 308.86 673.62 308.88 C 674.26 308.88 674.89 308.91 675.53 308.99 C 677.36 309.42 679.1 310.15 680.69 311.14 C 682.08 312.02 683.3 313.14 684.3 314.44 C 685.24 315.68 685.95 317.07 686.42 318.55 C 686.88 320.02 687.11 321.56 687.1 323.1 C 687.09 325.41 686.62 327.7 685.73 329.83 C 684.8 332.07 683.46 334.12 681.77 335.86 C 679.96 337.72 677.8 339.2 675.42 340.22 C 673.969 340.824 672.46 341.271 670.92 341.553 L 741.033 341.52 C 740.755 341.442 740.481 341.355 740.21 341.26 C 738.91 340.83 737.73 340.1 736.77 339.12 C 735.98 338.27 735.4 337.24 735.08 336.12 C 734.78 335.02 734.64 333.89 734.65 332.75 C 734.65 332.75 734.65 332.75 734.65 332.75 L 734.68 331.8 C 734.68 331.79 734.68 331.77 734.68 331.76 C 734.8 330.7 735.31 329.73 736.12 329.04 C 736.82 328.45 737.71 328.12 738.63 328.12 C 739.42 328.1 740.19 328.38 740.79 328.89 C 741.43 329.48 741.78 330.32 741.77 331.19 L 741.77 331.69 L 740.77 331.68 L 740.77 331.18 C 740.78 330.6 740.54 330.04 740.12 329.64 C 739.71 329.29 739.18 329.11 738.64 329.12 C 737.95 329.12 737.29 329.36 736.76 329.8 C 736.16 330.32 735.77 331.05 735.68 331.85 L 735.65 332.77 C 735.64 333.81 735.77 334.85 736.05 335.85 C 736.32 336.81 736.82 337.69 737.5 338.43 C 738.34 339.29 739.38 339.93 740.53 340.31 C 741.28 340.58 742.06 340.78 742.85 340.9 C 743.82 341.06 744.8 341.16 745.78 341.19 L 746.49 341.2 C 748.09 341.2 749.68 341.02 751.24 340.68 C 752.88 340.32 754.48 339.79 756.02 339.12 C 757.69 338.38 759.3 337.5 760.84 336.5 C 762.66 335.3 764.4 333.96 766.03 332.51 C 767.58 333.99 769.26 335.33 771.04 336.51 C 772.62 337.55 774.28 338.45 776.01 339.19 C 779.39 340.62 783.01 341.4 786.68 341.48 C 787.85 341.41 789.013 341.297 790.169 341.125 C 790.522 341.062 790.872 340.985 791.22 340.9 C 792 340.71 792.77 340.46 793.5 340.14 C 794.12 339.88 794.7 339.56 795.25 339.18 C 796.12 338.6 796.84 337.81 797.35 336.89 C 797.75 336.12 797.97 335.27 797.97 334.4 C 797.97 332.95 797.42 331.55 796.44 330.5 C 795.86 330.05 795.15 329.82 794.42 329.84 C 793.78 329.84 793.14 329.98 792.57 330.27 C 792.36 330.37 792.16 330.5 792 330.67 C 791.91 330.75 791.85 330.86 791.83 330.97 L 791.73 331.46 L 790.75 331.27 L 790.84 330.78 C 790.91 330.46 791.07 330.17 791.31 329.95 C 791.55 329.71 791.82 329.51 792.13 329.37 C 792.84 329.02 793.62 328.84 794.41 328.84 C 795.39 328.82 796.35 329.14 797.11 329.75 C 798.31 331 798.97 332.67 798.97 334.4 C 798.97 335.43 798.71 336.45 798.23 337.37 C 797.655 338.421 796.834 339.325 795.835 339.993 C 796.773 339.75 797.697 339.454 798.61 339.12 C 800.15 338.56 801.64 337.85 803.06 337.02 C 804.31 336.29 805.49 335.43 806.58 334.47 C 808.48 332.79 810 330.73 811.04 328.42 C 811.95 326.34 812.43 324.1 812.43 321.83 C 812.43 319.98 812.12 318.15 811.5 316.41 C 810.91 314.72 810.03 313.15 808.9 311.77 C 808.07 310.92 807.08 310.22 806 309.72 C 805.14 309.32 804.2 309.11 803.25 309.1 C 801.84 309.09 800.49 309.62 799.46 310.58 C 798.5 311.48 797.94 312.74 797.93 314.06 C 797.94 314.64 798.04 315.22 798.24 315.76 L 798.41 316.23 L 797.48 316.58 L 797.3 316.11 C 797.06 315.45 796.94 314.76 796.93 314.06 C 796.94 312.46 797.61 310.94 798.77 309.85 C 799.99 308.71 801.6 308.09 803.26 308.1 C 804.35 308.11 805.43 308.35 806.42 308.81 C 807.63 309.37 808.72 310.15 809.65 311.1 C 810.86 312.59 811.81 314.27 812.45 316.08 C 813.1 317.93 813.43 319.87 813.43 321.83 C 813.43 324.24 812.93 326.62 811.95 328.83 C 810.85 331.27 809.25 333.44 807.24 335.21 C 806.11 336.22 804.88 337.12 803.57 337.89 C 802.09 338.75 800.55 339.47 798.95 340.06 C 797.13 340.73 795.26 341.25 793.35 341.63 C 792.34 341.828 791.323 341.997 790.298 342.116 C 789.69 342.238 789.077 342.329 788.46 342.39 C 787.27 342.52 786.07 342.58 784.86 342.58 L 784.36 342.58 L 784.361 342.5 L 784.361 342.5 L 784.361 342.5 L 784.361 342.5 L 784.361 342.5 L 784.361 342.5 L 784.361 342.5 L 784.361 342.5 L 784.361 342.5 Z  M 801.29 342.34 L 807.31 346.08 L 801.29 349.82 L 795.27 346.08 L 801.29 342.34 L 801.29 342.34 Z " fill-rule="evenodd" fill="rgb(0,0,0)"/></svg>